<?xml version="1.0" standalone="no"?>
<!DOCTYPE svg PUBLIC "-//W3C//DTD SVG 20010904//EN"
 "http://www.w3.org/TR/2001/REC-SVG-20010904/DTD/svg10.dtd">
<svg version="1.0" xmlns="http://www.w3.org/2000/svg"
 width="1001.000000pt" height="1001.000000pt" viewBox="0 0 1001.000000 1001.000000"
 preserveAspectRatio="xMidYMid meet">

<g transform="translate(0.000000,1001.000000) scale(0.100000,-0.100000)"
fill="#000000" stroke="none">
<path d="M2770 6140 c-623 -37 -892 -97 -1138 -255 -70 -45 -140 -110 -357
-329 -148 -151 -286 -286 -305 -301 -41 -33 -37 -30 148 86 162 102 211 121
336 127 131 6 213 -15 273 -71 38 -35 46 -51 83 -167 37 -118 49 -180 34 -180
-3 0 -14 4 -24 10 -20 11 -37 57 -70 190 -12 46 -24 88 -27 93 -3 4 -12 -6
-21 -24 -34 -65 -41 -67 -352 -94 -157 -14 -318 -28 -358 -31 -68 -6 -72 -6
-65 12 10 28 -74 -42 -114 -95 -54 -70 -41 -106 50 -137 26 -9 47 -17 47 -17
0 -1 -16 -58 -35 -126 -19 -69 -33 -127 -30 -129 2 -2 17 5 32 16 16 11 92 45
168 75 233 91 250 100 275 145 16 29 31 42 49 44 14 2 -94 3 -241 3 -260 0
-268 1 -289 21 -14 15 -19 28 -15 42 6 18 18 20 144 26 75 4 189 12 253 17
146 13 308 -1 469 -42 118 -30 156 -34 176 -21 21 14 -4 124 -60 272 -31 80
-56 150 -56 157 0 10 39 16 160 26 24 2 25 -1 31 -69 4 -40 10 -150 14 -247
l7 -174 67 -7 c36 -3 88 -6 115 -6 46 0 48 1 30 14 -10 8 -16 17 -12 21 24 25
602 -26 975 -86 644 -102 1062 -295 1355 -626 83 -94 203 -274 196 -293 -2 -4
-66 42 -143 103 -277 217 -461 316 -703 376 -129 32 -206 42 -411 51 -241 11
-355 37 -595 136 -176 73 -241 86 -282 59 -23 -15 -34 -15 -165 4 -77 12 -160
21 -184 21 -40 0 -46 -3 -72 -42 -33 -50 -59 -57 -141 -37 l-53 12 -56 -54
c-74 -72 -129 -158 -155 -242 -17 -58 -20 -86 -16 -190 3 -67 9 -132 14 -145
9 -21 15 -14 79 80 129 192 265 304 435 356 101 31 157 35 224 17 97 -25 110
-35 120 -84 12 -58 -6 -216 -32 -275 -23 -51 -102 -140 -144 -162 -38 -20 -97
-17 -134 5 -17 10 -57 44 -88 75 -73 71 -111 83 -221 67 -119 -16 -151 -48
-186 -184 -46 -179 -54 -267 -54 -594 1 -414 -13 -416 -44 -5 -13 169 -24 308
-25 308 -11 11 -595 220 -604 216 -9 -3 -11 -17 -6 -51 17 -121 59 -333 99
-500 25 -101 45 -197 45 -215 -1 -100 -24 -16 -101 357 l-84 412 -92 3 c-83 2
-94 1 -113 -18 -28 -28 -23 -50 45 -210 76 -179 89 -228 89 -345 1 -136 -21
-202 -89 -272 -28 -29 -55 -53 -61 -53 -5 0 -22 113 -37 251 -22 198 -32 259
-49 292 -20 39 -21 41 -34 22 -7 -11 -20 -29 -29 -40 -15 -19 -15 -18 -9 20 8
49 28 83 58 97 l24 10 -26 56 c-19 42 -25 72 -25 124 0 59 5 78 41 150 22 46
52 113 67 149 54 136 102 151 315 96 74 -20 241 -69 370 -110 129 -42 245 -78
257 -82 l21 -6 -24 58 c-18 45 -24 77 -24 143 0 76 5 100 50 230 30 87 46 148
41 153 -15 15 -100 -2 -121 -25 -11 -13 -21 -41 -24 -74 -3 -30 -9 -79 -12
-110 -12 -112 -59 -125 -292 -79 -452 88 -595 71 -737 -87 -45 -50 -45 -50
-46 -22 0 25 -1 26 -9 9 -5 -11 -9 -71 -9 -133 -1 -110 -2 -114 -31 -150 -67
-84 -105 -236 -89 -362 10 -80 29 -135 76 -220 l37 -65 7 -215 c11 -325 18
-373 91 -630 46 -162 64 -204 136 -305 200 -284 632 -599 1117 -815 570 -254
1250 -417 2025 -484 756 -66 1882 -40 2810 64 1214 138 2286 431 2687 735 113
85 128 151 40 176 -70 20 -507 9 -692 -17 l-40 -6 46 49 c71 73 115 150 170
295 27 72 48 132 47 134 -2 1 -35 -21 -74 -50 -141 -104 -301 -172 -470 -201
-86 -14 -558 -65 -609 -65 -14 0 -25 6 -25 14 0 19 127 54 255 71 190 25 492
122 645 207 184 102 314 247 421 472 51 108 135 343 126 352 -3 3 -50 -21
-104 -54 -310 -191 -714 -341 -1160 -431 -751 -152 -1522 -168 -2533 -50 -697
81 -1566 243 -1879 351 -131 45 -332 138 -314 145 20 7 161 -24 458 -103 664
-176 1045 -252 1595 -318 660 -80 1151 -118 1535 -118 301 -1 464 9 721 42
526 68 994 240 1517 555 l149 90 -6 40 c-3 22 -15 117 -26 210 -27 241 -54
320 -155 465 -57 83 -68 110 -90 220 -38 195 -145 300 -304 300 -39 0 -66 6
-90 21 -38 23 -48 20 -32 -9 12 -23 21 -27 111 -42 130 -23 208 -78 250 -176
29 -68 70 -224 70 -269 0 -22 -9 -54 -19 -71 -23 -38 -66 -56 -291 -120 -290
-83 -385 -129 -538 -261 -121 -105 -237 -151 -486 -193 -204 -34 -205 -25 -6
59 218 92 305 138 396 206 192 147 304 374 304 617 0 74 -19 236 -35 301 -6
23 -3 24 62 33 l68 9 -77 38 c-52 25 -88 51 -110 79 -72 88 -103 120 -142 143
-91 53 -130 61 -611 120 -160 19 -299 38 -309 41 -10 4 -56 38 -102 78 -143
123 -245 174 -417 207 -183 34 -285 80 -447 199 -405 297 -703 455 -1025 544
-305 84 -639 130 -1195 166 -217 14 -1005 21 -1190 10z m1339 -154 c10 -11 -6
-28 -85 -90 l-97 -76 58 0 c110 0 163 -42 178 -142 l6 -37 -49 -10 c-30 -7
-135 -8 -277 -5 -257 6 -286 9 -308 30 -31 31 -10 115 37 148 17 12 48 16 120
16 92 0 98 1 98 20 0 33 -43 68 -106 85 -85 23 -177 56 -188 66 -6 5 117 9
296 9 250 0 308 -3 317 -14z m-2286 -110 c-45 -18 -94 -41 -110 -51 -42 -27
-152 -119 -293 -243 -69 -61 -127 -109 -128 -107 -15 14 193 216 312 304 96
71 215 131 261 130 38 0 37 -1 -42 -33z m3627 -206 c203 -89 435 -227 594
-355 153 -122 338 -306 323 -321 -3 -3 -253 13 -555 35 -302 23 -555 41 -561
41 -17 0 -89 69 -293 282 l-179 187 63 35 c94 52 201 95 303 122 137 35 170
32 305 -26z m-2040 -174 c250 -18 648 -53 697 -62 17 -3 40 -15 49 -26 18 -19
16 -24 -56 -166 l-75 -147 -660 0 -660 0 -6 91 c-7 110 -28 152 -93 183 -37
18 -61 21 -188 21 -80 0 -179 3 -221 6 l-77 7 0 42 c0 27 6 47 17 56 36 30
820 27 1273 -5z m1312 -93 c75 -58 163 -160 206 -242 18 -32 32 -62 32 -65 0
-3 -36 -6 -80 -6 l-80 0 0 43 c0 25 -10 61 -22 87 -31 59 -79 83 -183 90 -48
3 -80 9 -80 16 0 11 124 123 137 124 4 0 35 -21 70 -47z m1848 -197 c160 -34
327 -123 425 -226 l50 -53 -65 35 c-110 59 -223 98 -313 107 -45 4 -97 16
-115 25 -39 20 -109 81 -123 108 -9 16 -5 18 33 18 24 0 72 -7 108 -14z
m-1710 -136 c251 -12 386 -20 915 -60 215 -16 566 -41 780 -55 593 -39 808
-59 1125 -106 246 -36 287 -49 393 -126 120 -88 99 -204 -46 -252 -184 -61
-730 -94 -1202 -72 -537 25 -1282 102 -1710 176 -166 28 -282 67 -505 169
-391 177 -671 243 -1200 283 -217 16 -236 19 -170 24 41 4 188 8 325 9 138 1
320 6 405 10 247 11 657 11 890 0z m-3866 -118 c2 -4 -13 -43 -35 -87 -40 -81
-41 -78 -13 33 15 56 33 77 48 54z m2473 -473 c71 -10 80 -14 67 -26 -20 -20
-18 -39 7 -64 17 -17 28 -20 57 -14 56 10 79 13 63 8 -9 -4 -11 -14 -6 -36 15
-65 13 -70 -42 -100 -42 -22 -55 -36 -69 -72 -11 -29 -15 -60 -12 -90 6 -52
-4 -50 -32 5 -23 46 -24 76 -6 188 7 45 10 82 7 82 -4 0 -16 -7 -27 -15 -10
-8 -22 -15 -26 -15 -4 0 -26 36 -48 80 -25 50 -35 80 -28 80 7 0 50 -5 95 -11z
m-349 -167 l-3 -37 -22 36 c-13 20 -23 45 -23 55 0 10 10 29 23 42 l22 24 3
-41 c2 -23 2 -58 0 -79z m843 -64 c62 15 79 15 79 2 0 -5 -6 -10 -14 -10 -35
0 -66 -44 -76 -105 -5 -33 -15 -72 -21 -87 -23 -56 59 -118 154 -118 63 0 196
37 242 67 23 16 40 22 43 15 20 -61 113 -125 200 -138 41 -6 42 -6 42 21 0 23
2 26 15 15 20 -17 19 -53 -3 -80 l-18 -22 -149 21 c-243 34 -391 43 -745 45
-381 2 -379 2 -463 84 -75 73 -78 86 -13 57 110 -49 311 -86 451 -84 l60 1
-69 12 c-52 9 -74 19 -89 37 l-19 24 85 6 c135 9 197 61 197 163 0 54 -10 76
-64 135 -28 30 -22 28 46 -19 l78 -53 51 11z m-577 0 c-22 -42 -22 -138 0
-198 l17 -45 -41 40 c-64 64 -67 134 -9 200 39 44 55 45 33 3z m397 -5 c5 -15
12 -45 15 -67 7 -48 -14 -72 -84 -100 -61 -23 -70 -10 -23 31 39 33 65 89 60
131 -4 42 17 45 32 5z m3281 -14 c71 -18 106 -19 540 -12 418 5 469 4 521 -11
56 -16 79 -38 61 -56 -6 -6 -41 1 -87 15 l-78 25 -479 0 c-471 0 -480 0 -480
-20 0 -11 12 -26 30 -35 25 -13 99 -15 520 -15 528 0 519 1 464 -51 -26 -24
-38 -26 -149 -16 -21 1 -32 -4 -40 -20 l-12 -22 -19 26 c-18 24 -23 25 -59 17
-35 -8 -40 -14 -43 -41 -5 -55 67 -84 107 -44 19 19 20 19 37 0 13 -15 31 -19
81 -19 34 0 63 -4 63 -8 0 -5 -10 -18 -22 -29 -42 -38 -249 -56 -328 -28 -23
8 -45 15 -49 15 -3 0 -4 -22 -3 -50 l4 -49 131 -3 c80 -2 132 -7 134 -14 2 -5
-14 -19 -34 -29 -30 -15 -65 -20 -173 -22 -74 -2 -145 -9 -158 -15 -18 -10
-25 -8 -36 7 -10 14 -21 17 -51 12 -20 -3 -45 -13 -55 -22 -22 -20 -30 -19
-30 3 0 10 -20 87 -45 172 -25 85 -45 155 -45 157 0 2 -22 3 -50 3 l-50 0 0
-34 c0 -38 28 -66 66 -66 25 0 59 -34 49 -49 -3 -6 -22 -11 -41 -11 -39 0 -47
-12 -36 -54 7 -27 15 -31 70 -44 35 -7 62 -19 62 -26 0 -22 -24 -36 -62 -36
-24 0 -40 -6 -46 -16 -8 -14 -12 -10 -22 22 -15 49 -30 66 -30 36 0 -13 -11
-45 -25 -72 -27 -54 -29 -49 37 -64 19 -4 30 -1 36 11 9 16 14 16 71 0 75 -21
71 -21 71 5 0 20 1 20 18 5 25 -22 108 -23 120 -1 8 14 10 14 21 0 10 -12 33
-16 97 -16 97 0 112 -16 42 -46 -34 -14 -81 -19 -213 -23 -93 -3 -176 -10
-183 -14 -8 -6 -20 -3 -31 7 -12 11 -27 14 -49 10 -30 -6 -32 -9 -32 -50 l0
-44 158 0 157 0 -40 -36 -40 -35 91 45 c216 106 397 252 572 461 l34 40 -23
-40 c-37 -65 -115 -160 -187 -226 -171 -157 -448 -321 -621 -369 -41 -11 -84
-29 -96 -40 -12 -11 -24 -20 -27 -20 -3 0 -9 33 -13 73 -26 270 -122 648 -216
856 -16 35 -29 65 -29 66 0 7 104 -9 172 -26z m-2996 -21 c-16 -51 -15 -52 81
-82 17 -5 32 2 64 31 l42 38 -8 -42 c-6 -39 -4 -45 35 -86 l41 -45 -38 -6
c-21 -3 -92 -13 -157 -22 -117 -15 -119 -15 -139 4 -19 19 -19 22 -3 37 10 11
16 33 16 64 0 34 7 58 27 89 30 46 49 56 39 20z m2462 6 c193 -4 352 -10 352
-14 0 -17 -83 -19 -498 -10 -1010 22 -1135 18 -1190 -37 -18 -18 -22 -30 -18
-49 4 -14 3 -24 -1 -22 -4 2 -25 12 -45 22 l-37 19 20 29 c22 30 65 56 114 69
30 8 616 5 1303 -7z m-5795 -67 c-4 -8 -62 -86 -127 -175 -90 -122 -123 -159
-132 -151 -10 8 -7 22 13 67 19 42 53 85 132 165 96 97 135 130 114 94z m4793
-33 c42 3 81 9 86 14 5 5 27 3 55 -6 34 -12 59 -13 102 -6 31 5 277 7 561 4
472 -5 507 -6 533 -24 36 -24 34 -32 -10 -43 -71 -16 -49 -87 30 -100 37 -6
44 -12 51 -50 0 -4 -19 -10 -44 -13 -38 -4 -45 -8 -42 -25 8 -60 10 -62 61
-69 87 -12 110 -61 28 -61 -33 0 -50 -5 -59 -18 -13 -17 -15 -17 -27 -3 -11
13 -34 16 -113 16 -90 0 -99 -2 -94 -17 3 -10 8 -30 12 -45 6 -28 6 -28 95
-28 76 0 90 3 102 20 13 19 13 19 30 0 13 -15 30 -20 70 -20 58 0 95 -24 84
-55 -5 -13 -33 -15 -181 -15 -156 0 -176 -2 -185 -17 -10 -17 -10 -17 -11 0 0
21 -7 22 -373 22 l-278 0 26 -21 c40 -32 143 -64 236 -74 127 -13 381 -1 395
19 10 13 14 13 37 -2 22 -14 52 -17 173 -17 120 0 151 -3 175 -17 16 -10 28
-22 26 -28 -2 -6 -99 -11 -270 -13 -211 -2 -267 -5 -267 -15 0 -10 71 -22 263
-46 292 -36 297 -37 297 -55 0 -16 -69 -13 -284 10 -421 46 -842 189 -1262
429 -149 86 -317 223 -350 286 -21 42 -1 35 36 -11 18 -22 45 -47 61 -55 38
-20 125 -20 136 0 8 13 21 13 113 1 58 -7 106 -12 108 -11 7 6 -42 115 -52
115 -6 0 -44 -7 -83 -17 -67 -15 -73 -19 -74 -42 -1 -20 -9 -10 -34 44 -19 39
-34 73 -35 77 0 4 16 0 35 -8 24 -10 58 -13 111 -10z m-183 -5 c14 -6 30 -22
36 -35 10 -23 9 -24 -28 -24 -21 0 -59 3 -84 6 -41 6 -45 9 -38 28 7 18 34 31
78 35 7 0 23 -4 36 -10z m-3108 -401 c43 -37 161 -263 144 -274 -6 -3 -11 -4
-13 -3 -1 2 -17 28 -35 56 -38 61 -94 113 -121 113 -33 0 -70 -22 -89 -54 -31
-52 -128 -382 -119 -406 2 -5 32 15 66 43 63 50 64 50 40 63 l-23 13 28 1 c16
0 37 -5 47 -10 23 -12 77 -173 120 -354 27 -116 48 -316 32 -316 -4 0 -44 5
-89 10 -102 13 -157 32 -205 71 -21 16 -38 27 -38 24 0 -10 30 -210 36 -237 9
-46 31 -33 38 22 6 42 11 51 31 56 41 10 50 -1 63 -79 21 -126 52 -139 114
-47 20 30 40 56 46 58 12 4 -24 -187 -49 -253 -35 -94 -73 -106 -143 -44 l-35
30 19 -68 c26 -93 54 -158 95 -215 39 -54 36 -57 -49 -35 -48 12 -50 15 -68
67 -30 87 -95 346 -112 450 -28 170 -36 272 -36 470 0 416 62 729 164 836 54
56 89 59 141 12z m1510 -100 c364 -129 691 -187 1555 -278 409 -43 455 -50
510 -81 l35 -20 -150 5 c-271 10 -945 85 -1310 147 -386 65 -521 102 -697 190
-92 46 -248 143 -248 154 0 2 37 -12 83 -32 45 -19 145 -58 222 -85z m-3102
-331 c22 -34 35 -90 43 -184 7 -81 6 -82 -17 -88 -14 -3 -37 -1 -52 4 -44 17
-51 46 -38 158 7 54 14 106 17 116 7 24 29 21 47 -6z m7327 -145 c50 -24 59
-60 59 -235 1 -165 -7 -195 -59 -222 -24 -13 -176 -22 -797 -50 -423 -19 -865
-37 -984 -41 l-215 -7 -33 29 c-43 39 -51 78 -50 264 0 180 9 215 59 245 34
19 54 20 525 25 270 3 708 7 975 8 444 2 488 1 520 -16z m-6894 -42 c38 -28
76 -49 84 -48 8 2 22 -10 30 -27 8 -16 38 -47 65 -67 75 -57 270 -152 385
-189 91 -29 100 -34 79 -43 -13 -5 -78 -10 -144 -10 -106 0 -137 4 -265 37
-80 21 -154 40 -164 44 -12 3 1 -19 38 -62 66 -78 91 -114 84 -121 -3 -2 -40
36 -82 86 -95 111 -189 190 -283 237 -49 24 -70 40 -64 47 4 6 34 46 65 89 43
58 63 77 80 77 13 0 54 -23 92 -50z m2022 -162 c-68 -142 -164 -246 -301 -326
l-66 -39 136 -114 c277 -232 359 -286 533 -347 142 -50 275 -70 654 -102 571
-49 722 -66 801 -93 82 -28 91 -48 25 -59 -63 -10 -732 -47 -990 -55 -293 -8
-447 16 -653 102 -263 111 -554 362 -648 560 -16 33 -29 65 -29 71 0 7 39 24
88 39 182 56 252 114 390 317 47 70 88 126 90 123 3 -2 -11 -37 -30 -77z
m-2438 -45 c26 -71 25 -89 -7 -121 l-26 -26 -18 49 c-20 58 -24 137 -8 167 11
21 12 21 25 3 8 -10 23 -43 34 -72z m3195 -213 c6 -5 17 -29 24 -52 21 -68
105 -142 251 -220 325 -173 619 -267 947 -303 209 -22 258 -21 288 10 20 19
25 34 25 75 0 27 2 50 4 50 10 0 480 -220 488 -228 18 -18 -73 -25 -336 -25
-420 -1 -753 50 -1100 170 -366 127 -562 253 -784 504 -53 60 -99 114 -100
120 -4 10 274 -85 293 -101z m-2700 -69 c239 -38 430 -140 565 -302 51 -61 62
-86 34 -75 -20 8 11 -36 56 -79 44 -42 66 -81 83 -148 l15 -58 -31 7 c-140 30
-822 277 -812 294 2 4 30 10 61 14 76 9 132 35 170 78 34 39 80 126 70 135 -3
3 -110 28 -237 54 -128 27 -235 51 -238 55 -3 3 5 14 18 25 30 25 89 25 246 0z
m-412 -74 l36 36 -25 -83 c-13 -46 -26 -85 -28 -87 -2 -2 -15 11 -29 29 -27
36 -57 116 -57 151 0 17 8 10 34 -30 l33 -52 36 36z m1777 -184 c0 -32 -44
-316 -60 -389 -6 -27 -18 -68 -27 -91 -13 -36 -20 -43 -42 -43 -27 0 -69 20
-43 20 35 0 138 314 149 453 3 42 10 77 14 77 5 0 9 -12 9 -27z m4725 -447
c25 -11 41 -29 60 -66 14 -29 46 -72 71 -96 24 -25 44 -46 44 -48 0 -2 -51 -6
-112 -9 -62 -4 -225 -14 -363 -22 -836 -50 -1971 -75 -2556 -57 -211 7 -449
17 -529 23 -199 13 -452 37 -457 43 -3 2 4 30 13 61 l18 58 81 -7 c44 -3 195
-9 335 -12 270 -7 381 -3 1185 46 713 44 1006 57 1945 89 124 4 226 9 228 9 1
1 18 -4 37 -12z"/>
<path d="M3803 3958 c-13 -6 -23 -14 -23 -17 0 -4 45 -16 100 -27 55 -11 100
-17 100 -14 0 9 -42 46 -67 59 -27 14 -81 13 -110 -1z"/>
<path d="M7110 4026 c0 -19 9 -51 21 -70 18 -31 19 -40 9 -71 -17 -50 -6 -85
25 -85 14 0 25 6 25 13 0 6 -12 65 -27 130 -17 76 -31 117 -40 117 -8 0 -13
-13 -13 -34z"/>
<path d="M7650 4051 c-49 -7 -58 -20 -41 -63 8 -23 18 -27 66 -33 31 -4 58 -5
61 -2 8 7 -21 101 -32 102 -5 1 -29 -1 -54 -4z"/>
<path d="M7307 4043 c-3 -5 6 -25 20 -46 17 -28 41 -46 81 -64 l57 -26 -53
-12 c-29 -7 -55 -14 -57 -17 -2 -2 0 -21 6 -41 l10 -37 56 0 56 0 -6 56 c-3
30 -18 86 -33 125 l-27 69 -53 0 c-29 0 -55 -3 -57 -7z"/>
<path d="M7464 4035 c-18 -46 27 -85 97 -85 33 0 32 -3 18 56 l-11 44 -50 0
c-34 0 -50 -4 -54 -15z"/>
<path d="M7543 3893 l-43 -4 0 -45 0 -44 66 0 c57 0 65 2 60 18 -2 9 -7 32
-11 50 -4 17 -12 31 -18 30 -7 -1 -31 -3 -54 -5z"/>
<path d="M7180 3370 l0 -40 103 37 c56 19 104 37 106 39 2 2 -44 4 -102 4
l-107 0 0 -40z"/>
<path d="M5790 4059 c-122 -19 -120 -19 -120 -43 0 -50 21 -61 124 -64 l95 -4
-20 61 c-12 34 -22 60 -22 60 -1 -1 -27 -5 -57 -10z"/>
<path d="M5978 4053 l-78 -4 0 -33 c0 -51 20 -61 122 -61 48 0 88 0 88 1 1 19
-34 103 -43 102 -7 -1 -47 -4 -89 -5z"/>
<path d="M6680 4052 c-47 -2 -89 -7 -93 -11 -5 -5 -6 -23 -2 -39 8 -38 56 -57
118 -48 47 7 71 -5 82 -41 6 -23 5 -23 -85 -23 l-92 0 6 -25 c20 -77 16 -75
126 -75 55 0 100 3 100 8 0 11 -68 254 -72 256 -2 0 -41 0 -88 -2z"/>
<path d="M6124 4037 c-9 -24 15 -67 43 -78 16 -6 49 -8 75 -5 39 6 51 3 68
-14 40 -40 27 -50 -59 -50 -73 0 -79 -2 -84 -22 -4 -13 0 -33 9 -45 15 -24 35
-28 117 -24 29 2 54 -2 64 -11 14 -11 16 -10 10 12 -3 14 -16 76 -28 138 l-22
112 -94 0 c-69 0 -95 -4 -99 -13z"/>
<path d="M6353 4013 c9 -52 30 -65 93 -57 45 5 54 3 82 -21 18 -15 30 -31 26
-36 -3 -5 -41 -9 -85 -9 -85 0 -85 0 -73 -58 l6 -30 100 -7 c54 -4 101 -6 102
-4 2 2 -11 60 -28 129 l-33 125 -98 3 -98 3 6 -38z"/>
<path d="M5661 3918 l-1 -28 -132 0 c-127 0 -131 -1 -114 -19 9 -10 40 -31 69
-47 42 -23 64 -29 119 -29 51 0 72 4 85 17 16 17 18 17 36 0 15 -13 38 -17
113 -17 l93 0 -6 25 c-17 72 -14 70 -117 70 -90 0 -95 -1 -99 -22 -3 -21 -4
-21 -15 7 -28 69 -31 73 -31 43z"/>
<path d="M6107 3934 c-4 -4 -7 -15 -7 -25 0 -16 -11 -19 -82 -21 l-83 -3 2
-34 c0 -18 6 -38 12 -44 9 -9 189 -12 199 -3 2 2 -5 34 -15 71 -10 36 -22 63
-26 59z"/>
<path d="M6151 3769 c-1 -33 -26 -41 -99 -32 -41 5 -56 2 -71 -11 -14 -13 -24
-15 -38 -8 -32 17 -86 21 -173 14 l-85 -7 40 -26 c90 -57 102 -59 405 -59
l280 0 0 28 1 27 15 -27 c14 -28 16 -28 114 -28 55 0 100 3 100 6 0 3 -5 25
-11 50 -13 50 -7 49 -131 32 -88 -12 -90 -11 -107 11 l-17 22 -81 -20 c-45
-12 -88 -24 -96 -27 -11 -4 -19 7 -30 38 -13 36 -16 39 -16 17z"/>
<path d="M7076 3072 c18 -11 29 -169 14 -187 -11 -13 -8 -15 15 -15 21 0 26 4
21 16 -3 9 -6 56 -6 105 l0 89 -27 0 c-16 0 -23 -4 -17 -8z"/>
<path d="M6606 3062 c14 -9 25 -163 12 -185 -8 -14 -4 -17 24 -17 25 0 29 3
20 12 -17 17 -15 93 3 108 12 10 18 10 31 -1 12 -10 15 -26 12 -66 -5 -53 2
-62 29 -45 8 5 9 13 3 22 -6 8 -10 34 -10 57 0 46 -23 70 -51 52 -24 -15 -29
-10 -29 31 0 37 -2 40 -27 40 -16 0 -23 -4 -17 -8z"/>
<path d="M6057 3043 c-39 -10 -61 -107 -36 -156 17 -32 29 -37 81 -35 l46 1 4
44 c3 42 2 43 -27 43 -20 0 -26 -3 -17 -9 22 -13 11 -65 -15 -69 -50 -7 -76
115 -33 158 11 11 25 20 30 20 6 0 19 -9 30 -20 l20 -20 0 25 c0 22 -4 25 -32
24 -18 -1 -41 -3 -51 -6z"/>
<path d="M6198 3041 c10 -6 13 -32 10 -100 l-3 -91 40 0 c57 0 89 19 93 55 3
19 -2 33 -13 42 -16 11 -16 13 -1 28 22 22 20 52 -3 65 -24 12 -142 14 -123 1z
m100 -13 c18 -18 14 -46 -7 -58 -38 -20 -51 -13 -51 30 0 35 3 40 23 40 13 0
28 -5 35 -12z m0 -87 c8 -5 12 -21 10 -37 -2 -25 -8 -29 -35 -32 -32 -3 -33
-2 -33 37 0 36 3 41 23 41 12 0 28 -4 35 -9z"/>
<path d="M7532 3014 c-19 -13 -23 -23 -20 -62 2 -39 8 -49 31 -62 24 -13 30
-13 55 0 22 13 28 23 30 62 3 39 -1 49 -20 62 -12 9 -29 16 -38 16 -9 0 -26
-7 -38 -16z m69 -31 c15 -40 0 -78 -31 -78 -17 0 -25 7 -31 28 -17 65 39 109
62 50z"/>
<path d="M7682 2974 c6 -40 5 -60 -3 -70 -9 -11 -6 -14 21 -14 27 0 31 2 20
15 -6 8 -11 34 -10 57 4 62 2 68 -18 68 -17 0 -18 -5 -10 -56z"/>
<path d="M7725 3020 c-3 -5 3 -10 13 -10 11 0 23 -7 26 -16 10 -26 7 -79 -6
-92 -9 -9 -4 -12 22 -12 26 0 31 3 22 12 -17 17 -15 83 3 98 8 7 22 9 31 6 13
-5 16 -17 12 -61 -4 -52 -3 -55 18 -55 21 0 22 4 17 38 -11 79 -19 97 -42 100
-12 2 -29 -2 -38 -10 -13 -10 -17 -10 -20 0 -5 14 -49 16 -58 2z"/>
<path d="M7188 3009 c-29 -16 -21 -45 17 -68 41 -24 47 -51 10 -51 -14 0 -25
5 -25 10 0 6 -4 10 -10 10 -5 0 -10 -6 -10 -14 0 -18 44 -26 72 -12 36 18 34
43 -6 67 -36 21 -46 44 -23 52 6 2 20 -2 30 -11 15 -14 17 -13 17 6 0 17 -6
22 -27 22 -16 0 -36 -5 -45 -11z"/>
<path d="M7386 2998 c-47 -67 19 -151 80 -103 18 15 17 16 -12 10 -39 -7 -57
12 -52 56 3 34 37 65 45 42 7 -18 33 -16 33 2 0 26 -75 20 -94 -7z"/>
<path d="M6800 2990 c-24 -24 -26 -67 -4 -98 18 -26 75 -30 94 -7 15 18 10 18
-24 5 -19 -7 -29 -6 -41 6 -29 29 -18 44 30 44 49 0 56 10 29 48 -19 28 -57
29 -84 2z m70 -26 c0 -9 -11 -14 -30 -14 -34 0 -41 23 -13 39 20 11 43 -3 43
-25z"/>
<path d="M6946 2988 c-49 -70 25 -154 90 -103 18 15 17 16 -14 10 -35 -7 -62
7 -62 31 0 10 13 14 45 14 48 0 56 11 35 51 -15 28 -74 26 -94 -3z m68 -4 c8
-20 8 -21 -27 -29 -20 -5 -27 -3 -27 7 0 33 43 50 54 22z"/>
<path d="M6372 2993 c2 -5 14 -36 27 -70 13 -35 29 -63 36 -63 7 0 18 20 25
46 14 50 22 48 40 -8 11 -36 40 -53 40 -25 0 6 11 38 24 70 l24 57 -23 0 c-18
0 -21 -5 -18 -23 2 -12 -1 -36 -8 -52 l-12 -30 -16 53 c-17 56 -35 67 -45 27
-3 -13 -11 -37 -17 -52 l-11 -28 -14 38 c-7 21 -11 44 -8 52 5 11 -1 15 -21
15 -15 0 -25 -3 -23 -7z"/>
<path d="M7306 2895 c4 -8 10 -15 15 -15 5 0 9 7 9 15 0 8 -7 15 -15 15 -9 0
-12 -6 -9 -15z"/>
<path d="M6931 2834 c-491 -12 -900 -25 -907 -28 -23 -9 -16 -33 9 -32 18 1
22 -4 22 -29 0 -25 -4 -30 -22 -29 -25 1 -31 -18 -10 -33 19 -15 1869 33 1879
49 14 23 9 96 -8 112 -8 9 -27 15 -42 15 -15 -1 -429 -12 -921 -25z m582 -51
c4 -19 2 -33 -3 -33 -6 0 -10 17 -10 37 0 43 5 41 13 -4z m-310 -10 c6 -30 4
-33 -18 -33 -30 0 -33 25 -7 50 9 10 17 17 18 16 1 0 4 -16 7 -33z m640 18 c6
-24 0 -31 -27 -30 -20 0 -20 1 -2 8 18 7 18 8 2 14 -9 4 -14 11 -11 17 10 17
32 11 38 -9z m-1058 -2 c4 -6 0 -9 -11 -7 -13 2 -19 -3 -19 -17 0 -14 6 -19
20 -17 16 3 17 1 8 -8 -17 -18 -43 -4 -43 23 0 13 3 27 7 30 10 10 31 8 38 -4z
m643 -17 c3 -16 -2 -22 -17 -22 -26 0 -37 18 -16 26 13 6 14 9 3 16 -9 7 -8 8
7 6 12 -2 21 -12 23 -26z m202 13 c0 -8 -6 -15 -12 -15 -9 0 -8 -4 2 -10 12
-8 11 -10 -7 -10 -18 0 -23 6 -23 25 0 18 5 25 20 25 11 0 20 -7 20 -15z m103
8 c-7 -2 -13 -13 -13 -24 0 -10 -4 -19 -10 -19 -5 0 -10 11 -10 25 0 19 5 25
23 24 12 0 16 -3 10 -6z m-1471 -38 c2 -19 0 -35 -4 -35 -4 0 -8 9 -8 19 0 11
-3 26 -6 35 -3 9 -2 16 4 16 5 0 12 -16 14 -35z m88 0 c0 -19 -2 -35 -4 -35
-2 0 -6 16 -8 35 -2 19 0 35 4 35 4 0 8 -16 8 -35z m964 26 c9 -14 -4 -41 -19
-41 -18 0 -28 17 -21 35 6 17 32 20 40 6z m-414 -26 c0 -18 -5 -25 -20 -25
-11 0 -20 7 -20 15 0 8 6 15 13 15 8 0 7 4 -3 10 -12 8 -11 10 8 10 17 0 22
-6 22 -25z m103 18 c-7 -2 -13 -13 -13 -24 0 -10 -4 -19 -10 -19 -5 0 -10 11
-10 25 0 19 5 25 23 24 12 0 16 -3 10 -6z m-535 -30 c2 -13 -1 -23 -7 -23 -6
0 -12 10 -12 23 l-2 22 -4 -22 c-6 -31 -23 -29 -23 3 0 21 4 25 23 22 14 -2
23 -11 25 -25z m108 -1 c1 -15 -4 -22 -17 -22 -19 0 -29 17 -21 38 7 21 37 9
38 -16z m-398 -9 c2 -13 -1 -23 -7 -23 -6 0 -12 10 -12 23 l-2 22 -4 -22 c-6
-31 -23 -29 -23 3 0 21 4 25 23 22 14 -2 23 -11 25 -25z"/>
<path d="M7181 2764 c0 -11 3 -14 6 -6 3 7 2 16 -1 19 -3 4 -6 -2 -5 -13z"/>
<path d="M6025 2758 c-9 -22 4 -43 17 -30 7 7 7 16 0 29 -10 17 -11 17 -17 1z"/>
<path d="M1449 4971 c23 -23 24 -23 95 -8 l71 15 -77 1 c-42 0 -84 4 -94 8
-13 5 -12 1 5 -16z"/>
<path d="M1170 4535 l-33 -34 19 -36 c10 -19 22 -35 26 -35 5 0 45 19 91 42
l82 41 -60 29 c-33 15 -67 28 -76 28 -8 0 -30 -16 -49 -35z"/>
<path d="M802 4490 l-31 -38 24 -22 23 -22 56 38 c31 20 55 38 53 40 -1 1 -23
12 -49 23 l-46 19 -30 -38z"/>
<path d="M8623 4300 c47 -41 60 -78 55 -150 -5 -70 -26 -104 -84 -137 l-39
-23 40 0 c81 0 134 60 150 173 13 93 -38 167 -116 167 l-40 0 34 -30z"/>
<path d="M8616 4208 c-11 -72 -14 -158 -5 -164 5 -3 9 -3 9 0 0 2 7 40 15 83
19 97 19 113 0 113 -8 0 -16 -13 -19 -32z"/>
<path d="M8446 4133 c-14 -29 -14 -30 19 -47 66 -36 80 -2 22 53 l-25 23 -16
-29z"/>
<path d="M8430 4056 c0 -12 -3 -51 -7 -86 l-6 -63 65 44 66 44 -21 23 c-11 12
-29 22 -39 22 -10 0 -27 9 -38 20 l-20 20 0 -24z"/>
<path d="M8717 4007 l-45 -53 43 -67 43 -67 85 68 c47 37 85 71 84 75 -1 4
-39 28 -84 52 l-81 45 -45 -53z"/>
<path d="M9290 3123 c0 -5 -11 -82 -24 -173 -25 -171 -51 -266 -117 -433 -22
-53 -39 -103 -39 -110 0 -19 70 83 101 148 41 85 66 194 84 358 8 78 17 159
20 180 4 29 2 37 -10 37 -8 0 -15 -3 -15 -7z"/>
</g>
</svg>
